<?xml version="1.0" encoding="utf-8"?>
<!-- Generator: Adobe Illustrator 26.5.0, SVG Export Plug-In . SVG Version: 6.00 Build 0)  -->
<svg version="1.0" id="Capa_1" xmlns="http://www.w3.org/2000/svg" xmlns:xlink="http://www.w3.org/1999/xlink" x="0px" y="0px"
	 viewBox="0 0 1183.3 464.4" style="enable-background:new 0 0 1183.3 464.4;" xml:space="preserve">
<style type="text/css">
	.st0{fill-rule:evenodd;clip-rule:evenodd;fill:#EBA900;}
	.st1{fill:#EBA900;}
	.st2{fill:#00833E;}
</style>
<g>
	<g>
		<path class="st0" d="M69.8,157.8c10.6,2.1,15.3,7.8,20.7,7.8h3.9c0.3-1.4-0.6-2.7,0-3.9c5.7,3.4,5,1.6,9.1,5.2
			c7.9-7.9,2.2-2.3,3.9-7.8c28.9,13,42.8,7.9,41.4,15.9l-4.6,27.6c-14.9-10.6-12.2-7.3-14.8-7.3c0,0-20-14.2-27.2-14.2
			c0,0-28.1-20.6-36.2-23.3H69.8z M275.1,103.7c5.4,4,7.4,10.8,12.8,14.1l14.1,3.4C302,106.4,286.5,104.3,275.1,103.7z M322.2,124.5
			c9.4,8.1,32.3,24.2,44.5,19.5C350.5,133.3,343.1,125.8,322.2,124.5z M238.7,45.7l-9.4-4.7c-4,2.7-9.4,11.3-4.7,12.1
			c11.6,2.1,26.9,14.1,33.7,14.1c2,0,2.7-2.7,2.7-4.7C260.9,60.5,241.4,47.1,238.7,45.7z M277.1,75.4c8.1,3.4,15.5,6.7,24.9,8.1v9.4
			C291.3,90.2,281.8,82.1,277.1,75.4z M253.5,18.1c0,2.7,18.2,16.8,25.9,16.8c2.5,0,5,0.1,7.8,0c-5-7.6-17.3-18.1-25.9-18.1
			c0,0,2.3-1.8-7.8-5.2c1.8-0.1,7.9,0,10.3,0c8.3,0,19.1,12.4,36.2,11.6c-0.8-0.3-3.9,0-3.9,0c4.5-1.8,5.2-2.6,5.2-2.6
			c0.1,0,0.3,1.2,10.3,6.5c-3.1-0.1-0.9-0.5-6.5,0c3.1,3.6,29.6,24.6,42.7,24.6c0,0-0.5,1.6,6.5,3.9v-3.9
			c-20.4-12.2-20.6-8.3-22-15.5c3.2,4.9,3.9,3.9,3.9,3.9s5.8,2.8,7.8,3.9c0-9.8-7-14.2-15.5-14.2c-0.8,0-3.4-3.9-9.1-3.9h-3.9
			c0,0-0.5-0.6-11.6-9.1h3.9c0.5,0.3,34.1,16.8,36.2,16.8l24.6,14.2c0,0.3,11.6,5.6,19.4,7.8c-0.5-1.8-1.2-3.1-2.6-5.2
			c3.6,1.3,4.3,1.6,4.3,1.6c0.1-0.1-0.7-0.9,2.1-1.6v3.9c-1,0.8-2.6,1.3-3.9,2.6c2.1,1.4,3.6,3.9,7.8,3.9c2.3,0,3.9,3.1,3.9,3.9
			c0,0,7.6,5.2,10.3,5.2c1.3,0,1.4,3.9,6.5,3.9c0.1,0,8.8,11.6,18.1,11.6c0,0,8.9,9.1,16.8,9.1c1.8,0-1.8,3,9.1,1.3
			c-3.1-4.3-4.8-6.5-9.1-6.5c-0.3,0-0.5-3.9-10.3-3.9c0,0,0.9-3.9-6.5-3.9L419,67.3c0-3.6-6.5,0-6.5,0s-35.3-34.9-42.7-34.9
			l-24.6-11.6h3.9c-6.6-7.2-3.9-1.3-3.9-1.3v-3.9l23.3,10.3c0,0,31.7,17.8,37.5,22c0.4-7.8-6.7-7.4-12.9-15.5
			c3.9,2.3,7,3.9,11.6,3.9l60.8,45.3c0,0,7.5,7.1,10.3,10.3l6.5-6.5c-17.6-12.5-18.8-11.8-19.4-15.5c3.1,2.6,21.5,15.1,25.9,16.8
			c-2.8,6.1-2.6,5.2-6.5,7.8c3,4.4,1.4,3.2,9.1,7.8c0.8-1.8,0.3-3.2,0-5.2h3.9c12.4,9.8,22.2,10.2,24.6,19.4
			c-1.3-0.9-10.6-7.8-12.9-7.8c-1.8,0-0.5-0.3-9.1-3.9v3.9c34.5,26.5,33.8,26,38.8,31c-1.7,0.1-3.4,0.6-3.9,2.6
			c-7.8-3.6-4.9-4.3-12.9-2.6c5.9,4.7,13.7,8.9,15.5,19.4h-3.9c-2.7-3.6-27.7-24.4-37.5-31c-1.8,1.7-2,2.4-1.8,2.6
			c0.4,0.3,2.3-1.1-2.1-1.3c0.6,8.7,5.2,6.3,5.2,15.5c0,0.9,37.5,35,37.5,36.2c0,0,16.8,13.3,16.8,16.8c0,0,22,15.8,22,25.9
			c0,2.6,8.7,11.3,16.8,19.4c-1.9-0.9-12.7-8.1-19.4-19.4c-0.8-5.4-1.4-6.5-9.1-6.5l-38.8-31l-0.3-16.6h-24.3v11.4H485v-11.6h-23.3
			v11.6h-11.6v-11.6h-22V204l16.8,0.3l-10.3,62.1c0,0-19.8-14.4-20.7-15.5H410c1.3,5,18.5,23,22.7,25.2l-4.7,24.2
			c0,0.3-0.4-0.3-12.8-0.3l-14.2-77.6c1.8-0.8,3.2,0,5.2,0c4,0,22,11.6,29.7,22c0,0-24.4-17-24.4-21.2l-0.2-29.2h-18.1
			c0,4.3-0.1,5.6,0,9.1c-4.7,0.3-2.7,0.3-9.1,0V194H366v9.1h-11.6v-10.5h-25.9l15.5-1.2c0,0,0.3-4.5,0-10.3c1.9,0.4,3.2,0.3,5.2,0
			c-5.6-4.7-2.5-1-5.2,0c0.5-11.8,0-8.7,0-24.6h-25.1c0,0-0.2,3.9-2,3.9c-1.2,0-11.1-7.8-27.2-12.9v5.2h3.9
			c4.7,1.3,21.1,9.7,25.9,15.5h-12.9l0.2-10.3l-26.1,0v11.6l-11.6,0v-11.6h-27.2v33.6h20.7l-11.6,82.8l-19.4-120.3h25.9v-42.7
			c-4-2.8-22-5.2-22-5.2s-28.2-11.6-38.8-11.6h-6.5c-0.1,0,1.8-3.9-9.1-3.9v3.9c3.2,0.3,3,0,6.5,0c0.3,0,14.9,8.3,44,15.5h-7.8
			c-3.5,4.4-2.6,14.2-2.6,14.2h-15.5c0,0,2.1-15.8-6.5-14.2h-16.8c-2.8-0.9-5.7-1.8-10.3-2.6v6.5c-1.9,0.1-3.2,0-5.2,0
			c-8.9,0-36.7-12.9-45.3-12.9h-9.1c-1.4,0,1.4-3.9,0-3.9c-10,0-9.2-5-15.5-7.8h10.3v3.9c1.7,1.4,9.2,6.5,20.7,6.5
			c2.8,0,3.6,5.2,7.8,5.2c2.1,0,18.2,1.4,23.3,6.5h9.1c-1.9-2.5-8.3-6.5-14.2-6.5c-0.3,0-2.2-1.4-6.5,0v-3.9
			c5.7,0.5,10.6,3.6,16.8,0l3.9,3.9l2.6-2.6c-4.1-3.2-18.8-9.1-23.3-9.1c-3.1,0-1.7-3.9-14.2-3.9H128c-0.5,0,0.5-5.2-10.3-5.2h-3.9
			c0,0-0.1-1.6-3.9-3.9h19.4c0,0,16.8,8.9,16.8,9.1c0,9.1,17.7,0,18.1,0c0,0,0.3,2.1,6.5,5.2v-3.9c-8.3-2.8-14.9-6.5-23.3-6.5
			c0,0,2.7-3.9-10.3-3.9H128c-1,0,2.6-3.9-6.5-3.9h-9.1c0,0,3.6-3.5-9.1-5.2c-1.8-0.1-3.4,0-5.2,0c4.8-1,10.7-1.3,23.3-1.3
			c1.6,0-4.1,3.9,6.5,3.9h10.3c0.9,0-5.2,3.9,3.9,3.9c0.3,0,11.5,6.5,22,6.5c9.1,0,14.2-1,23.3,0v-3.9c-3.9-3.2,1.7-1-40.1-12.9h3.9
			c6.5,0,9.7,0.6,14.2,3.9h5.2V66h-3.9c-17.3-3.4-19.4-3.1-27.2-7.8h-3.9l1.3,2.6c-6.5-7.9-5-3.6-9.1-2.6c1.6-0.9,15,0,50.4,0
			c4.7,0-5.3,3.9,6.5,3.9c3.4,0-4.3,3.4,7.8,0c-1.6-2.5-2.5-3.9-5.2-3.9h-6.5c0,0-8.9-4.4-11.6-6.5c-1-2.3-1.8-3.9-3.9-3.9
			c-1.3,0-3.5-3.9-11.6-3.9c0,0-6.1-6.5-23.3-6.5c-0.1,0-2.3-3.9-10.3-3.9c0,0-1-3.1-9.1-5.2c13.7-0.9,40.2,10.3,44,10.3
			c4.7,0,3-0.9,5.2-5.2c3.2,0.6,5.7,0.4,9.1,0v-6.5c1.8-0.1,19.4-0.3,22,0v-3.9c-1.9-0.8-2.2,0.3-3.9,0l12.9-2.6
			c0.4,0-0.6,3.9,7.8,3.9h6.5c0,0,0.5,2.5,6.5,5.2v-3.9c-5.8-4.1-15-8-23.3-12.9c17.8,4.9,30.8,15.1,40.1,19.4v-3.9
			c-7.6-5.4-15.5-9.1-18.1-14.2c8.9,5.9,12.7,10.3,20.7,7.8c-0.5-0.3-21.1-14.1-32.3-19.4C210.6,2.8,253.5,15.8,253.5,18.1z
			 M120.3,344c-1.3-1.8-3.6-3.9-5.2-6.5C117.2,339.2,119.2,341.3,120.3,344z M100.9,327.2c-4.4-4.4-4.5-5.2-5.2-6.5
			C100.1,325.1,100.2,325.9,100.9,327.2z M72.4,313h3.9c1.9,1.7,3.5,3.6,3.9,6.5C77.9,316.3,75.4,315.3,72.4,313z M44,298.8
			c-1.4-1.4-2.9-2.6-5.2-3.9C38.8,294.9,42.1,295.2,44,298.8z M518.6,279.4c0.9,7.4-0.3,0.6,3.9,10.3h-3.9
			C517.6,285.8,518,283.4,518.6,279.4z M543.2,280.6c-2.2-1.3-4-2.8-5.2-5.2L543.2,280.6z M605.3,266.4c-2.3-2.3-2.5-5.2-5.2-5.2
			c-2.5,0-5.2-4.3-6.5-7.8C600.4,254.5,604.4,259.7,605.3,266.4z M33.6,252.2h3.9c5.3,7.1,16.3,7.5,19.4,19.4
			C51.3,263.2,39.4,256.9,33.6,252.2z M28.5,247l1.3,2.6h-3.9L28.5,247z M529,261.2c2.3,0,5.6,3.4,6.5,10.3
			c-6.7-11.3-11-1-25.9-25.9C519.1,248.8,523.9,261.2,529,261.2z M548.4,248.3c-7.1-5.2-12.8-11.3-15.5-16.8
			C544.5,243.1,545.9,244.2,548.4,248.3z M2.6,227.6c0,0,7.2,6.7,14.2,12.9c-1.9-0.8-5.2,0-6.5,0c-5.4,0,0-5.2,0-5.2
			s-4.7-2.1-10.3-6.5L2.6,227.6z M36.2,235.4c-5.2-4.5-9.8-4.7-10.3-10.3C28.6,228.3,34.1,226.8,36.2,235.4z M544.5,261.2
			c-5.9-3.9-36.6-27.8-38.8-38.8L544.5,261.2z M103.5,206.9h3.9c3,2.6,3.5,2.8,5.2,3.9c-5.2-1.3-4.8-2.5-9.1,0V206.9z M333.7,197.3
			v23.9h15.5l-9.5,56.5l-17.1-84.3L333.7,197.3z M522.5,192.7c0,0,16.8,13.8,16.8,16.8c0,0,37.5,36.5,37.5,40.1c0,1.7,3-0.6,5.2,7.8
			c0,0-16.6-20.3-16.8-20.7c-4.8,4.3-5.2,4.5-5.2,6.5c0,2.5,3.9,3.9,7.8,9.1c-8.9-2.8-33.4-31.3-54.3-44c2.1,7.9,8,12.2,15.5,18.1
			c-1.8-0.9-18.1-11.5-18.1-15.5c0-0.9-3.5-0.4-7.8-5.2v-3.9c4,0.3,19.2,0,19.2,0S522.5,190,522.5,192.7z M66,184.9
			c0.5,0-3.1,0.9,9.1,7.8h-3.9c-6.6-4.7-12.2-6.1-20.7-7.8H66z M36.2,183.7c0,0,1.2,0.8,7.8,6.5c-3.2-1.9-5.3-3.9-9.1-3.9
			c-1.4,0-2.5-0.3-3.9,0C33,185.3,34,183.7,36.2,183.7z M545.8,175.9c2.3,4.3,0.3,1.2,0,3.9h3.9
			C548.2,179.4,546.8,179.5,545.8,175.9z M40.1,178.5h-3.9c-2.2-1.3-5.8-3.2-9.1-5.2C33.6,174.1,33.6,174.9,40.1,178.5z
			 M534.1,168.1c2.3,1.6,4,2.6,6.5,3.9c-4.3-1.3-5-0.3-6.5,0V168.1z M454,161.7l-1.3,2.6l-1.3-1.3L454,161.7z M45.3,160.4
			c29.9,17.8,34.4,18.6,37.5,15.5c-15.9-9.4-14.4-6.3-19.4-12.9c0,0,28.2,14.2,28.5,14.2c0.3,0,49.4,39.2,49.9,40.3l-20.1,120.1
			c-0.1,0-20.3-25.9-32.3-25.9c0,0,1.3,0-6.5-5.2h-5.2c1.4,2.5,1.6,1.9,2.6,5.2c-1.8-2.8-12.2-9.7-29.7-22
			c10.2,4.8,10.9,8.4,19.4,9.1c-1.2-2.3-1.3-3.1-1.8-3.7c-1.3-1.5-4.8-1.2-35.7-22.2c11.5,2.2,20.7,11.4,20.7,11.6
			c0,0.5,4.5,1.9,11.6,5.2v-3.9c-3.9-3.1-6.6-5.3-9.1-7.8c11.1,6.6,7.9,7.8,12.9,7.8l22,16.8c0,0,0-0.9,6.5-2.6
			c-4-12-6.7-3.1-7.8-12.9h-5.2c0,0-74.2-62.9-75-66c2.2-0.3,4.1,0.1,6.5,0c-6.5-14-5.6-1.9-12.9-14.2h3.9
			c9.2,7.2,15.9,7.1,42.7,24.6c17.8,11.6,19.9,25.9,36.2,25.9c1.2,0-0.3,2.5,0,3.9h5.2v-6.5c-11.1-12.3-11.6-6.2-11.6-12.9
			c0-3.6-6.1-5.8-7.8-6.5v-3.9c4.5-4.5,2.2-0.9,3.9-6.5c-3.5-2.5-5-6.5-9.1-6.5c0,0-12.8-7-15.5-10.3c4.3,1.8,7,3.9,11.6,3.9
			c0,0,30.1,27.3,44,24.6c-8.1-13.7-14.2-6.9-14.2-9.1c0-2.5-0.1-4,0-6.5h-3.9h5.2v-3.9l1.3-2.6c-4.4-0.3-27.3-10.5-31-16.8V194
			c4,0.4,6.3,0,10.3,0c0,0,14.4,11.6,22,11.6c1.9,0,10-8.1,18.1,0v-3.9c-0.6-7.9,2.1-7.8-5.2-7.8c0,0-11.3-5.2-14.2-5.2
			c-3.2,0-9.2,7.4-12.9-3.9c-10.3-8.3-10.6-5.3-14.2-5.2c1.4,1.9,3.1,3.8,3.9,6.5C51.3,172,38.5,163,34.9,160.4H45.3z M527.7,165.5
			c-1-1.6-2.1-3-3.9-5.2C525.7,161.8,526.9,163.2,527.7,165.5z M385.4,164.3c-0.6-1.7-1.3-3-1.3-5.2h1.3V164.3z M152.5,152.8
			l-2.6,15.5c-12.8-12.8-11.3-14.5-12.8-15.5H152.5z M34.9,151.3c-2.4,0.4-2.9,0.7-2.9,0.8c0.1,0.2,2.3,0-2.3-0.8H34.9z
			 M510.9,148.7H507l1.3-3.9C508.5,146.5,510.2,148,510.9,148.7z M374.1,156.8c4,0.5,4.1,1,6.5,2.6c-0.1,0-16-5.9-20.7-12.9
			C370.5,153.5,372.3,151.5,374.1,156.8z M107.3,121.6c3,1.4,3.8,0.9,6.5,0v3.9c-2.3-0.5-4.1-0.6-6.5,0V121.6z M283.2,119h3.9
			c3.4,0.3,21.2,6.2,24.6,14.2c-2.8-3.4-5-2.5-6.5-6.5c-5.9,1-9.1-3.2-16.8-5.2C287.2,119.9,285.2,119.4,283.2,119z M156.5,117.7
			h3.9c3.9,3.1,7.1,4.5,11.6,6.5h-15.5C156.4,122.7,156.4,120.8,156.5,117.7z M45.3,117.7c-1.2,0.8-2.7,0.6-3.9,0H45.3z
			 M329.8,117.7c-0.8-0.1-2.6-0.3-3.9,0C327.5,117.2,328.5,117.2,329.8,117.7z M122.9,115.1c0.4,5.9,0.3,6.5-1.3,10.3
			c-0.6-8-0.1-6.7-9.1-9.1C116.1,116.3,118.6,117,122.9,115.1z M491.5,113.8c1.3,1,2.1,2.2,3.9,2.6c-1.9-0.1-3.5-0.1-5.2,0
			L491.5,113.8z M532.8,125.5c-2.3-6.1-4.7-9.1-6.5-12.9C536.3,119.9,533.4,120.4,532.8,125.5z M42.7,111.2c4,0.4,6.3,0,10.3,0
			c0,0,10.7,7.8,19.4,7.8c0.8,0,1.2,3.9,10.3,3.9c1.8,0,7.2,9.1,22,9.1c0,0,17.3,6.7,19.4,9.1v7.8c-4.4-1.6-7-3.9-11.6-3.9
			l-28.5-15.5c-8.5,0-26.3-14.2-37.5-14.2c0,0-0.8-1-3.9,0V111.2z M465.6,111.2c0,0,18.1,11.6,22,19.4c-0.6-1.3-0.3-2.5,0-3.9h-3.9
			c0,0-17.8-14.7-22-12.9c-1.3-5.2-0.3-2.3-3.9-6.5C466,112.8,460.3,111.2,465.6,111.2z M120.3,102.2c0.3,0,2.3,5.2,11.6,5.2
			c1.2,0,1.8,1.7,3.9,2.6h-5.2c-6.1-3.1-10.1-5.2-14.2-6.5C118.6,103.5,118.6,102.2,120.3,102.2z M464.3,97l-1.3,2.6
			c0-0.4-1-0.1-1.3,0L464.3,97z M285.8,99.6c-3-0.6-5-1-7.8,0C283.2,96.6,279.6,98,285.8,99.6z M125.5,90.5
			c6.3,2.1-0.3-1.4,12.9,5.2H128c0,0-1.8-1.2-7.8-5.2H125.5z M313,90.5c-4.3-1.8-1-1-3.9,0C310.3,89.9,311.9,89.8,313,90.5z
			 M256.1,86.7l1.3,2.6c-1.4-0.5-3.1-0.3-3.9,0L256.1,86.7z M247,85.4h3.9l-2.6,1.3L247,85.4z M103.5,78.9c0,0,1.6,2.3,5.2,5.2
			c-7.4,0-12.5-2.8-16.8-3.9C99.2,79.7,103.5,78.9,103.5,78.9z M289.4,58.3c10.1,5,12.2,2.7,15.5,9.1c-3.9-3.4-7.8-3.9-12.9-3.9
			l-7.8-5.2H289.4z M73.7,71.1c0,0,0.9,2.6,10.3,3.9h-3.9c-4.3-0.8-14-3.6-15.5-3.9C69.7,71.3,70.6,71.1,73.7,71.1z M474.6,71.1
			h-5.2c2.4-0.9,2.6-1.2,2.6-1.3C472,69.8,471.7,70.3,474.6,71.1z M85.4,62.1c-1.7,2.8-1.9,0.6,0,3.9c-7.5-1.7-2.7-2.1-9.1,0v-3.9
			C79.8,62.5,81.9,62.6,85.4,62.1z M119,60.8c0.3,0-3.8,3,14.2,6.5c-10.6,0.6-11.5-5.2-31-6.5H119z M362.1,54.3
			c0.4,0.1,4.1,1,7.8,6.5c-1,0-1.8,0.8-2.6,1.3c0-0.3-0.3-2.3-2.6-3.9c-2.3-0.4-1,0.6-2.6,1.3C362.5,58.5,363.3,56.8,362.1,54.3z
			 M47.9,53c6.9,1.8,3.2,2.3,9.1,0v3.9c-7.9-1.7-3.5-1.8-9.1,0V53z M66,50.4c0,0,21.9,7,27.2,9.1c-1.9-0.1-7.2,0-10.3,0
			c-0.1,0-3.6-5.2-14.2-5.2c-1.2,0-11.4-5.4-19.4-6.5C63.5,47.9,53.2,50.4,66,50.4z M426.8,42.7v3.9c-2.5-1.2,0.1,2.1-5.2-3.9
			C428,49,424.1,43.8,426.8,42.7z M347.9,42.7l-1.3,2.6c0-0.4-1-0.1-1.3,0L347.9,42.7z M197.9,42.7c-6.3,3.6-8,1.2-14.2,0
			C188.4,42.7,191.4,44.6,197.9,42.7z M248.3,41.4c0.3,0,1,5.8,6.5,3.9c4.3,6.5,3.6,2.7,6.5,2.6c-1.2,0.3-7.5,1.3-9.1,1.3l-15.5-7.8
			C239.9,41.1,241.7,41.4,248.3,41.4z M216,41.4v1.3h-3.9v-1.3H216z M222.4,41.4c-0.9-0.1-1.8-0.3-2.6-1.3L222.4,41.4z M430.7,36.2
			c6.3,2.5,7.4,2.7,9.1,7.8C435.3,38.7,435.1,40.1,430.7,36.2z M197.9,34.9c0.8,0,1.3,3.5,7.8,3.9c-5.8,1.2-5.9,1.3-11.6,1.3
			c0,0-0.9-1.9-6.5-3.9C192.4,35.8,197.9,34.9,197.9,34.9z M355.7,34.9c0,0,3,2.2,9.1,6.5c-5.8-4.1-7.8-4.4-12.9-6.5
			C353.3,35.2,355,34.9,355.7,34.9z M184.9,33.6c-5.2,1.4-7.2,0.5-10.3,2.6C177.3,35.4,183.8,33.9,184.9,33.6z M146.1,28.5
			c-1.9,0.4-3.4,0.5-5.2,0C142.1,28.5,144.1,28.6,146.1,28.5z M367.3,16.8c3.4,3.4,1.8,0.3,0,3.9V16.8z M166.8,14.2v3.9
			c-3.5-2.1-5.6-3.5-10.3-3.9C158.4,14.4,162.8,14.7,166.8,14.2z M327.2,11.6c2.8,1.6,1.3,1.3,3.9,0v3.9h-3.9V11.6z M300,5.2
			c-4.8-1.6-5.3-1.4-7.8-5.2C294.7,1.4,296.6,2.5,300,5.2z"/>
		<rect x="136.4" y="380.8" class="st1" width="1046.9" height="6.4"/>
		<g>
			<path class="st2" d="M136.5,366.8c2-4.4,4.4-9.9,7.1-16.5l7.6-18.3c2.4-5.6,4.3-10.5,5.9-14.7c2.5,0,4.3,0.1,5.3,0.1
				c1.8,0,3.6,0,5.4-0.1l4.1,14.8l9,30.6l1.2,4l-4.3-0.1c-1,0-2.7,0-5.1,0.1c-0.5-2.1-1.2-5-2.2-8.7c-1-3.6-1.8-6.6-2.5-8.9h-15.2
				c-2.3,5.7-4.5,11.6-6.6,17.5l-4.7-0.1C140.6,366.7,138.9,366.7,136.5,366.8z M155.4,341.7h11.1l-4.6-16.7l-2.3,6.1L155.4,341.7z"
				/>
			<path class="st2" d="M192.7,317.4c2.2,0,3.7,0.1,4.5,0.1c1,0,2.4,0,4.4-0.1l-1.4,29.2c0,0.3,0,0.7,0,1.1c0,3.3,0.4,5.7,1.1,7.3
				s1.8,2.8,3.3,3.6c1.4,0.7,3.1,1.1,4.9,1.1c1.2,0,2.3-0.2,3.4-0.5c0.9-0.3,1.7-0.7,2.4-1.2c0.6-0.4,1.1-0.9,1.5-1.5
				c0.5-0.7,1-1.5,1.3-2.4c0.4-0.9,0.6-1.9,0.8-3c0.3-1.7,0.5-4.7,0.7-8.9l0.6-12.6c0.1-3.7,0.2-7.7,0.3-12.1c2.2,0,3.8,0.1,4.9,0.1
				l4.2-0.1l-0.9,17.4l-0.6,13.9c-0.2,3.2-0.4,5.6-0.8,7.2c-0.3,1.3-0.7,2.6-1.3,3.7c-0.5,1-1.2,1.9-1.9,2.7c-1,1-2.1,1.9-3.4,2.7
				c-1.4,0.8-3,1.5-4.6,1.8c-2.2,0.5-4.5,0.8-6.9,0.8c-2.4,0-4.7-0.3-6.8-0.8c-1.8-0.5-3.5-1.2-5-2.2c-1.5-1-2.7-2.1-3.6-3.4
				c-0.7-1-1.3-2.3-1.7-3.8c-0.5-1.7-0.7-3.6-0.7-5.6c0-0.7,0-1.7,0.1-2.8c0-1.1,0.1-2.6,0.2-4.4l0.3-5.1c0.1-1.6,0.2-3.9,0.3-7
				l0.3-7.9C192.6,322.4,192.7,320,192.7,317.4z"/>
			<path class="st2" d="M235,366.8l2.2-3.3c0.7-1,1.8-2.8,3.5-5.4l7.9-12.6l2.5-4.2l-3.6-7.3l-8.6-16.6c1.9,0,3.7,0.1,5.4,0.1
				c1.4,0,3,0,4.8-0.1c1.1,2.8,2.2,5.8,3.6,8.9c1.3,3.1,2.4,5.6,3.1,7.5c1.2-2,2.9-4.7,5.1-8c2.2-3.3,3.9-6.1,5.2-8.4
				c1.6,0,3.2,0.1,4.8,0.1c1,0,2.6,0,4.8-0.1c-1.5,2.5-3.7,6-6.5,10.4c-2.8,4.4-5.5,8.8-8,13c2.7,5.5,7.1,14.2,13.2,25.9
				c-2.3,0-3.9-0.1-4.9-0.1c-1.7,0-3.4,0-5.3,0.1c-1.1-2.4-2.5-5.2-4.3-8.6c-1.8-3.4-3.2-6.2-4.3-8.3c-1.1,1.9-2.7,4.5-4.9,7.8
				s-4,6.4-5.7,9.1c-2.1,0-3.7-0.1-4.8-0.1C238.8,366.7,237.1,366.7,235,366.8z"/>
			<path class="st2" d="M283.1,366.8c0.5-8.3,0.8-16.8,1.1-25.5c0.3-8.7,0.4-15.4,0.4-20l0-3.9l4.8,0.1c0.3,0,1.7,0,4.4-0.1
				c-0.8,12.7-1.3,29.1-1.5,49.4l-4.3-0.1C287.5,366.7,285.8,366.7,283.1,366.8z"/>
			<path class="st2" d="M305,366.8c0.6-7.3,1-15.3,1.4-24.3c0.3-8.9,0.5-17.3,0.6-25.1c2,0,3.6,0.1,4.9,0.1c0.9,0,2.3,0,4.3-0.1
				c-0.3,4.3-0.5,9.3-0.7,14.8l-0.6,14.5c-0.2,4.1-0.3,8.3-0.4,12.4l5,0.1c4.7,0,7.7,0,9.2-0.1c1.5,0,2.9-0.1,4.3-0.2
				c-0.2,2.4-0.3,5-0.5,7.9c-5.1,0-9.4-0.1-13-0.1l-9.1,0L305,366.8z"/>
			<path class="st2" d="M341.9,366.8c0.5-8.3,0.8-16.8,1.1-25.5c0.3-8.7,0.4-15.4,0.4-20l0-3.9l4.8,0.1c0.3,0,1.7,0,4.4-0.1
				c-0.8,12.7-1.3,29.1-1.5,49.4l-4.3-0.1C346.2,366.7,344.5,366.7,341.9,366.8z"/>
			<path class="st2" d="M358.8,366.8c2-4.4,4.4-9.9,7.1-16.5l7.6-18.3c2.4-5.6,4.3-10.5,5.9-14.7c2.5,0,4.3,0.1,5.3,0.1
				c1.8,0,3.6,0,5.4-0.1l4.1,14.8l9,30.6l1.2,4l-4.3-0.1c-1,0-2.7,0-5.1,0.1c-0.5-2.1-1.2-5-2.2-8.7c-1-3.6-1.8-6.6-2.5-8.9h-15.2
				c-2.3,5.7-4.5,11.6-6.6,17.5l-4.7-0.1C362.9,366.7,361.2,366.7,358.8,366.8z M377.6,341.7h11.1l-4.6-16.7l-2.3,6.1L377.6,341.7z"
				/>
			<path class="st2" d="M413.3,366.8c0.6-7.2,1-15.4,1.3-24.8s0.4-17.5,0.4-24.6c2.3,0,4.3,0.1,5.8,0.1c1.7,0,3.3,0,4.9-0.1
				s3.3-0.1,5.1-0.1c2.2,0,4.2,0.2,6,0.5c1.8,0.3,3.3,1,4.7,2.2c1.4,1.1,2.4,2.5,3.1,4.1c0.7,1.6,1,3.5,1,5.6c0,1.4-0.1,2.6-0.4,3.9
				c-0.3,1.2-0.6,2.4-1.1,3.4s-1.1,2-1.8,2.8c-0.7,0.8-1.3,1.4-2,1.9c-0.7,0.5-1.4,0.9-2.3,1.2c-0.8,0.3-2,0.7-3.4,1.2l2,4.8
				c0.6,1.5,1.8,4.2,3.6,8.2l2.9,6.4c0.2,0.3,0.6,1.4,1.4,3.3c-2.4,0-3.9-0.1-4.7-0.1c-0.9,0-2.6,0-4.9,0.1l-3.2-9.6
				c-0.6-1.5-1.2-3.2-2-5.2l-3.5-8.8c-0.3-0.8-0.8-2-1.4-3.7c1.3,0.3,2.5,0.4,3.5,0.4c1.7,0,3.2-0.3,4.5-1c1.4-0.7,2.4-1.7,3.2-3.1
				s1.1-2.9,1.1-4.6c0-1-0.2-2-0.5-2.8s-0.9-1.6-1.6-2.2c-0.8-0.6-1.6-1-2.7-1.2s-2.1-0.3-3.1-0.3c-0.6,0-1.4,0-2.4,0
				c-1,0-2.2,0-3.7,0l-0.5,14.9l-0.5,27.1l-4.5-0.1C417,366.7,415.5,366.7,413.3,366.8z"/>
			<path class="st2" d="M472.3,366.8l0.8-8.2l1.9-28.7l0.7-12.5c2.8,0,4.8,0.1,6,0.1c1,0,2.9,0,5.6-0.1c0.3,2,0.5,3.3,0.7,4.2
				c0.2,0.8,0.5,2.1,0.9,3.9c0.4,1.8,1,4,1.7,6.6c1,3.9,1.9,7.8,2.8,11.6l2.2,10.3l3.9-13.3l5.6-17.3c0.2-0.6,0.4-1.2,0.6-2
				s0.5-2.1,1-4.1c2.3,0,4.3,0.1,6.1,0.1c1.2,0,3.1,0,5.7-0.1c-0.3,6.9-0.5,14.6-0.6,23c-0.1,8.4-0.2,14.7-0.2,18.8
				c0,2,0,4.5,0.1,7.5c-1.9,0-3.2-0.1-3.9-0.1c-1,0-2.3,0-4,0.1c0.1-2.5,0.2-4.5,0.2-6.1l0.5-21.5c0.1-3,0.1-6,0.1-9l0-2.9
				L500,362.5l-1.2,4.3c-1.9,0-3.2-0.1-3.9-0.1c-0.9,0-2.2,0-4.1,0.1l-5-22.3c-0.2-0.8-0.6-2.5-1.2-5l-1.8-7.4
				c-0.2-0.7-0.3-1.3-0.4-1.7c-0.1-0.4-0.3-1.4-0.6-3l-0.4,4.6c-0.1,1.5-0.2,3.9-0.4,7.4l-1.1,22.4c0,1.1-0.1,2.7-0.1,4.9l-3.7-0.1
				C475.4,366.7,474.2,366.7,472.3,366.8z"/>
			<path class="st2" d="M525,366.8c2-4.4,4.4-9.9,7.1-16.5l7.6-18.3c2.4-5.6,4.3-10.5,5.9-14.7c2.5,0,4.3,0.1,5.3,0.1
				c1.8,0,3.6,0,5.4-0.1l4.1,14.8l9,30.6l1.2,4l-4.3-0.1c-1,0-2.7,0-5.1,0.1c-0.5-2.1-1.2-5-2.2-8.7s-1.8-6.6-2.5-8.9h-15.2
				c-2.3,5.7-4.5,11.6-6.6,17.5l-4.7-0.1C529.1,366.7,527.5,366.7,525,366.8z M543.9,341.7H555l-4.6-16.7l-2.3,6.1L543.9,341.7z"/>
			<path class="st2" d="M579.6,366.8c0.4-4.3,0.6-9.2,0.8-14.5l0.7-17.7c0.2-6.4,0.3-12.1,0.3-17.1c2.2,0,4.1,0.1,5.7,0.1
				c1.2,0,2.8,0,5.1-0.1c2.2,4.8,5.2,11,9,18.6c3.8,7.6,6.9,14,9.3,19l1.1-33.6c0-0.8,0-2.1,0-4c1.8,0,3.2,0.1,4.1,0.1
				c0.4,0,1.7,0,4.1-0.1l-0.7,13.3l-0.9,22.7l-0.3,13.4c-2,0-3.7-0.1-5.1-0.1c-1.1,0-2.9,0-5.4,0.1c-1-2.1-1.7-3.7-2.2-4.8
				c-0.8-1.6-2.5-4.9-5.1-9.8c-1.7-3.3-3.8-7.5-6.4-12.6c-1.9-3.8-3.5-7-4.8-9.8c-0.2,3.9-0.4,11.2-0.7,21.7
				c-0.1,4.3-0.2,9.4-0.3,15.3c-1.8,0-3.1-0.1-3.9-0.1C583.3,366.7,581.8,366.7,579.6,366.8z"/>
			<path class="st2" d="M631.1,366.8c0.5-8.3,0.8-16.8,1.1-25.5c0.3-8.7,0.4-15.4,0.4-20l0-3.9l4.8,0.1c0.3,0,1.7,0,4.4-0.1
				c-0.8,12.7-1.3,29.1-1.5,49.4l-4.3-0.1C635.4,366.7,633.7,366.7,631.1,366.8z"/>
			<path class="st2" d="M653.2,366.8l0.5-8.6l0.7-19l0.3-13.8c0-1.3,0-2.5,0-3.8c0-0.9,0-2.4,0-4.2c2.5,0,4.5,0.1,6,0.1
				c1.2,0,3,0,5.2-0.1c2.2-0.1,3.9-0.1,5.2-0.1c2.7,0,4.6,0.2,5.9,0.7c1.3,0.5,2.5,1.4,3.5,2.5c1,1.1,1.8,2.5,2.3,4.1
				c0.6,1.8,0.9,3.7,0.9,5.8c0,3.1-0.6,5.9-1.9,8.5c-1.2,2.5-3,4.4-5.2,5.7c-2.2,1.3-4.6,1.9-7.3,1.9c-1.3,0-2.7-0.2-4.2-0.5
				c-0.4-2.5-0.9-4.9-1.4-7.1c1.2,0.3,2.4,0.5,3.6,0.5c1.6,0,3-0.3,4.2-0.9c1.2-0.6,2.1-1.6,2.8-2.9c0.7-1.4,1-2.9,1-4.6
				c0-1-0.1-1.9-0.4-2.8s-0.7-1.5-1.3-2s-1.2-0.9-1.8-1s-1.6-0.3-2.8-0.3c-1.1,0-2.2,0-3.3,0.1c-1.1,0-2.1,0.1-2.9,0.1
				c-0.2,4.7-0.4,9.2-0.5,13.6l-0.3,13.8c-0.1,4.9-0.2,8.5-0.2,10.8c0,0.9,0,2.1,0,3.8l-4.2-0.1C657,366.7,655.6,366.7,653.2,366.8z
				"/>
			<path class="st2" d="M694.4,317.4c2.2,0,3.7,0.1,4.5,0.1c1,0,2.4,0,4.4-0.1l-1.4,29.2c0,0.3,0,0.7,0,1.1c0,3.3,0.4,5.7,1.1,7.3
				c0.7,1.6,1.8,2.8,3.3,3.6c1.4,0.7,3.1,1.1,4.9,1.1c1.2,0,2.3-0.2,3.4-0.5c0.9-0.3,1.7-0.7,2.4-1.2c0.6-0.4,1.1-0.9,1.5-1.5
				c0.5-0.7,1-1.5,1.3-2.4c0.4-0.9,0.6-1.9,0.8-3c0.2-1.7,0.5-4.7,0.7-8.9l0.6-12.6c0.1-3.7,0.2-7.7,0.3-12.1c2.2,0,3.8,0.1,4.9,0.1
				l4.2-0.1l-0.9,17.4l-0.6,13.9c-0.2,3.2-0.4,5.6-0.8,7.2c-0.3,1.3-0.7,2.6-1.3,3.7c-0.5,1-1.2,1.9-1.9,2.7c-1,1-2.1,1.9-3.4,2.7
				c-1.4,0.8-3,1.5-4.6,1.8c-2.2,0.5-4.5,0.8-6.9,0.8c-2.4,0-4.7-0.3-6.8-0.8c-1.8-0.5-3.5-1.2-5-2.2s-2.7-2.1-3.6-3.4
				c-0.7-1-1.3-2.3-1.7-3.8c-0.5-1.7-0.7-3.6-0.7-5.6c0-0.7,0-1.7,0.1-2.8c0-1.1,0.1-2.6,0.2-4.4l0.3-5.1c0.1-1.6,0.2-3.9,0.3-7
				l0.3-7.9C694.3,322.4,694.4,320,694.4,317.4z"/>
			<path class="st2" d="M741.9,366.8c0.6-7.3,1-15.3,1.4-24.3c0.3-8.9,0.5-17.3,0.6-25.1c2,0,3.6,0.1,4.9,0.1c0.9,0,2.3,0,4.3-0.1
				c-0.3,4.3-0.5,9.3-0.7,14.8l-0.6,14.5c-0.2,4.1-0.3,8.3-0.4,12.4l5,0.1c4.7,0,7.7,0,9.2-0.1s2.9-0.1,4.3-0.2
				c-0.2,2.4-0.3,5-0.5,7.9c-5.1,0-9.4-0.1-13-0.1l-9.1,0L741.9,366.8z"/>
			<path class="st2" d="M773.4,366.8c2-4.4,4.4-9.9,7.1-16.5l7.6-18.3c2.4-5.6,4.3-10.5,5.9-14.7c2.5,0,4.3,0.1,5.3,0.1
				c1.8,0,3.6,0,5.4-0.1l4.1,14.8l9,30.6l1.2,4l-4.3-0.1c-1,0-2.7,0-5.1,0.1c-0.5-2.1-1.2-5-2.2-8.7s-1.8-6.6-2.5-8.9h-15.2
				c-2.3,5.7-4.5,11.6-6.6,17.5l-4.7-0.1C777.5,366.7,775.9,366.7,773.4,366.8z M792.3,341.7h11.1l-4.6-16.7l-2.3,6.1L792.3,341.7z"
				/>
			<path class="st2" d="M828.1,366.8l0.8-12.6l0.6-15.7l0.4-15.7c0-0.7,0-2.5,0-5.4c2.1,0,4.2,0.1,6,0.1c1.4,0,3.3,0,5.6-0.1
				c2.3-0.1,4.3-0.1,6-0.1c2.3,0,4.4,0.2,6.3,0.5c1.9,0.3,3.6,1,5.1,1.9c1.4,0.9,2.7,2.1,3.8,3.5c1.1,1.4,1.9,2.9,2.6,4.6
				c0.7,1.7,1.2,3.6,1.5,5.7c0.4,2.1,0.5,4.2,0.5,6.4c0,4.1-0.6,8.1-1.7,11.8c-1.1,3.8-2.9,6.9-5.1,9.3c-2.3,2.4-4.8,4-7.6,4.7
				s-5.9,1-9.4,1l-9.8-0.1C833,366.7,831.1,366.7,828.1,366.8z M836.9,359.1c1.6,0.1,3.1,0.1,4.7,0.1c1.8,0,3.4-0.1,4.9-0.3
				c1.5-0.2,2.8-0.6,3.9-1s2.2-1.3,3.3-2.5c1.1-1.2,2-2.6,2.7-4.1s1.2-3.3,1.6-5.2c0.4-1.9,0.5-3.8,0.5-5.8c0-3.6-0.5-6.6-1.5-8.9
				c-1-2.3-2.3-4-3.9-5c-1.6-1-4.1-1.5-7.5-1.5c-2.2,0-4.7,0-7.5,0.1L836.9,359.1z"/>
			<path class="st2" d="M900,316.5c2.9,0,5.6,0.5,8.3,1.5s5,2.6,7,4.8c2,2.2,3.6,4.8,4.6,7.8s1.6,6.4,1.6,10.4
				c0,3.7-0.5,7.3-1.5,10.7s-2.5,6.3-4.6,8.8c-2.1,2.4-4.6,4.3-7.5,5.4s-6.1,1.8-9.3,1.8c-3.1,0-6.1-0.5-8.9-1.6s-5.3-2.8-7.4-5.1
				c-2.1-2.3-3.5-5-4.4-8c-0.9-3-1.3-6.3-1.3-9.8c0-3.8,0.6-7.5,1.7-11c1.1-3.5,2.7-6.4,4.9-8.7c2.2-2.3,4.7-4,7.6-5.2
				S896.6,316.5,900,316.5z M899.5,324.2c-2.9,0-5.5,0.8-7.6,2.5c-2.2,1.7-3.8,4-4.9,6.9c-1.1,2.9-1.6,6-1.6,9.4
				c0,3.1,0.5,6,1.6,8.7s2.7,4.7,4.8,6s4.5,2.1,7.1,2.1c1.9,0,3.7-0.4,5.5-1.2c1.7-0.8,3.2-2.1,4.5-3.7c1.3-1.7,2.2-3.7,2.9-6.1
				c0.6-2.4,1-4.8,1-7.4c0-2.4-0.3-4.7-0.9-6.9c-0.6-2.2-1.5-4.1-2.6-5.7c-1.2-1.6-2.6-2.7-4.3-3.5S901.4,324.2,899.5,324.2z"/>
			<path class="st2" d="M931.7,366.8c0.6-7.2,1-15.4,1.3-24.8c0.3-9.3,0.4-17.5,0.4-24.6c2.3,0,4.3,0.1,5.8,0.1c1.7,0,3.3,0,4.9-0.1
				c1.6-0.1,3.3-0.1,5.1-0.1c2.2,0,4.2,0.2,6,0.5c1.8,0.3,3.3,1,4.7,2.2c1.4,1.1,2.4,2.5,3.1,4.1c0.7,1.6,1,3.5,1,5.6
				c0,1.4-0.1,2.6-0.4,3.9c-0.3,1.2-0.6,2.4-1.1,3.4c-0.5,1.1-1.1,2-1.8,2.8c-0.7,0.8-1.3,1.4-2,1.9c-0.7,0.5-1.4,0.9-2.3,1.2
				c-0.8,0.3-2,0.7-3.4,1.2l2,4.8c0.6,1.5,1.8,4.2,3.6,8.2l2.9,6.4c0.2,0.3,0.6,1.4,1.4,3.3c-2.4,0-3.9-0.1-4.7-0.1
				c-0.9,0-2.6,0-4.9,0.1l-3.2-9.6c-0.6-1.5-1.2-3.2-2-5.2l-3.5-8.8c-0.3-0.8-0.8-2-1.4-3.7c1.3,0.3,2.5,0.4,3.5,0.4
				c1.7,0,3.2-0.3,4.5-1c1.4-0.7,2.4-1.7,3.2-3.1c0.7-1.4,1.1-2.9,1.1-4.6c0-1-0.2-2-0.5-2.8s-0.9-1.6-1.6-2.2
				c-0.8-0.6-1.7-1-2.7-1.2s-2.1-0.3-3.1-0.3c-0.6,0-1.4,0-2.4,0c-1,0-2.2,0-3.7,0l-0.5,14.9l-0.5,27.1l-4.5-0.1
				C935.3,366.7,933.9,366.7,931.7,366.8z"/>
			<path class="st2" d="M968.6,366.8c2-4.4,4.4-9.9,7.1-16.5l7.6-18.3c2.4-5.6,4.3-10.5,5.9-14.7c2.5,0,4.3,0.1,5.3,0.1
				c1.8,0,3.6,0,5.4-0.1l4.1,14.8l9,30.6l1.2,4l-4.3-0.1c-1,0-2.7,0-5.1,0.1c-0.5-2.1-1.2-5-2.2-8.7s-1.8-6.6-2.5-8.9h-15.2
				c-2.3,5.7-4.5,11.6-6.6,17.5l-4.7-0.1C972.7,366.7,971.1,366.7,968.6,366.8z M987.5,341.7h11.1L994,325l-2.3,6.1L987.5,341.7z"/>
			<path class="st2" d="M141.8,455.8l0.8-12.6l0.6-15.7l0.4-15.7c0-0.7,0-2.5,0-5.4c2.1,0,4.2,0.1,6,0.1c1.4,0,3.3,0,5.6-0.1
				c2.3-0.1,4.3-0.1,6-0.1c2.3,0,4.4,0.2,6.3,0.5c1.9,0.3,3.6,1,5.1,1.9c1.4,0.9,2.7,2.1,3.8,3.5c1.1,1.4,1.9,2.9,2.6,4.6
				c0.7,1.7,1.2,3.6,1.5,5.7c0.4,2.1,0.5,4.2,0.5,6.4c0,4.1-0.6,8.1-1.7,11.8c-1.1,3.8-2.9,6.9-5.1,9.3c-2.3,2.4-4.8,4-7.6,4.7
				c-2.8,0.7-5.9,1-9.4,1l-9.8-0.1C146.7,455.7,144.8,455.7,141.8,455.8z M150.6,448.1c1.6,0.1,3.1,0.1,4.7,0.1
				c1.8,0,3.4-0.1,4.9-0.3c1.5-0.2,2.8-0.6,3.9-1c1.1-0.5,2.2-1.3,3.3-2.5c1.1-1.2,2-2.6,2.7-4.1c0.7-1.6,1.2-3.3,1.6-5.2
				c0.4-1.9,0.6-3.8,0.6-5.8c0-3.6-0.5-6.6-1.5-8.9c-1-2.3-2.3-4-3.9-5c-1.6-1-4.1-1.5-7.5-1.5c-2.2,0-4.7,0-7.5,0.1L150.6,448.1z"
				/>
			<path class="st2" d="M191.2,455.8l0.8-13.9l0.6-16l0.4-14.6v-4.9c4.8,0,9.7,0.1,14.9,0.1l5.6,0l8.4,0l-0.3,7.8l-2.7-0.2
				c-0.8,0-1.8-0.1-3.1-0.1c-1.3,0-2.7,0-4.1,0c-3,0-5,0-5.8,0c-0.9,0-2.2,0.1-4,0.1l-0.5,12.8c2.6,0.1,5.3,0.1,8,0.1
				c1.9,0,5-0.1,9.4-0.2c-0.2,2.2-0.3,4.8-0.4,7.9c-5.2-0.1-8.1-0.1-8.9-0.1c-2.3,0-5.1,0.1-8.5,0.2l-0.5,13.5l3.2,0
				c0.9,0,3,0,6.4-0.1l6.3-0.1l4.2-0.3c-0.2,2.8-0.3,5.4-0.4,7.9c-5,0-9.5-0.1-13.6-0.1l-9.5,0L191.2,455.8z"/>
			<path class="st2" d="M232,455.8c0.6-7.3,1-15.3,1.4-24.3c0.3-8.9,0.5-17.3,0.6-25.1c2,0,3.6,0.1,4.9,0.1c0.9,0,2.3,0,4.3-0.1
				c-0.3,4.3-0.5,9.3-0.7,14.8l-0.6,14.5c-0.2,4.1-0.3,8.3-0.4,12.4l5,0.1c4.7,0,7.7,0,9.2-0.1c1.5,0,2.9-0.1,4.3-0.2
				c-0.2,2.4-0.3,5-0.5,7.9c-5.1,0-9.4-0.1-13-0.1l-9.1,0L232,455.8z"/>
			<path class="st2" d="M318.6,446.7c-0.4,2.8-0.8,5.7-1.1,8.6c-2.2,0.5-4.2,0.8-6,1c-1.8,0.2-3.4,0.3-4.7,0.3
				c-2.9,0-5.7-0.5-8.3-1.5s-5-2.6-7.1-4.8c-2.1-2.2-3.6-4.8-4.6-7.9c-0.9-3.1-1.4-6.5-1.4-10.2c0-4,0.6-7.7,1.7-11.1
				c1.1-3.4,2.8-6.3,4.9-8.6c2.1-2.3,4.7-4.1,7.6-5.2s6-1.7,9.1-1.7c3.1,0,6.5,0.4,10.2,1.3c0.1,2.1,0.1,3.7,0.2,4.6l0.2,3.9
				c-2.2-0.7-4-1.2-5.4-1.5s-2.8-0.4-4.1-0.4c-2.1,0-4,0.4-5.9,1.2c-1.9,0.8-3.6,2-5,3.7c-1.5,1.7-2.6,3.8-3.4,6.2s-1.2,5-1.2,7.6
				c0,3.1,0.5,5.9,1.4,8.4c1,2.5,2.5,4.5,4.6,6c2.1,1.5,4.8,2.3,7.9,2.3C311,448.9,314.5,448.2,318.6,446.7z"/>
			<path class="st2" d="M324.2,455.8c2-4.4,4.4-9.9,7.1-16.5l7.6-18.3c2.4-5.6,4.3-10.5,5.9-14.7c2.5,0,4.3,0.1,5.3,0.1
				c1.8,0,3.6,0,5.4-0.1l4.1,14.8l9,30.6l1.2,4l-4.3-0.1c-1,0-2.7,0-5.1,0.1c-0.5-2.1-1.2-5-2.2-8.7c-1-3.6-1.8-6.6-2.5-8.9h-15.2
				c-2.3,5.7-4.5,11.6-6.6,17.5l-4.7-0.1C328.3,455.7,326.7,455.7,324.2,455.8z M343.1,430.7h11.1l-4.6-16.7l-2.3,6.1L343.1,430.7z"
				/>
			<path class="st2" d="M378.8,455.8c0.6-7.2,1-15.4,1.3-24.8s0.4-17.5,0.4-24.6c2.3,0,4.3,0.1,5.8,0.1c1.7,0,3.3,0,4.9-0.1
				s3.3-0.1,5.1-0.1c2.2,0,4.2,0.2,6,0.5c1.8,0.3,3.3,1,4.7,2.2c1.4,1.1,2.4,2.5,3.1,4.1c0.7,1.6,1,3.5,1,5.6c0,1.4-0.1,2.6-0.4,3.9
				c-0.3,1.2-0.6,2.4-1.1,3.4s-1.1,2-1.8,2.8c-0.7,0.8-1.3,1.4-2,1.9c-0.7,0.5-1.4,0.9-2.3,1.2c-0.8,0.3-2,0.7-3.4,1.2l2,4.8
				c0.6,1.5,1.8,4.2,3.6,8.2l2.9,6.4c0.2,0.3,0.6,1.4,1.4,3.3c-2.4,0-3.9-0.1-4.7-0.1c-0.9,0-2.6,0-4.9,0.1l-3.2-9.6
				c-0.6-1.5-1.2-3.2-2-5.2l-3.5-8.8c-0.3-0.8-0.8-2-1.4-3.7c1.3,0.3,2.5,0.4,3.5,0.4c1.7,0,3.2-0.3,4.5-1c1.4-0.7,2.4-1.7,3.2-3.1
				s1.1-2.9,1.1-4.6c0-1-0.2-2-0.5-2.8s-0.9-1.6-1.6-2.2c-0.8-0.6-1.6-1-2.7-1.2s-2.1-0.3-3.1-0.3c-0.6,0-1.4,0-2.4,0
				c-1,0-2.2,0-3.7,0l-0.5,14.9l-0.5,27.1l-4.5-0.1C382.4,455.7,381,455.7,378.8,455.8z"/>
			<path class="st2" d="M429.4,455.8l0.6-10.6l0.6-15.7l0.4-15.5h-2l-1.9,0l-1.8,0l-6.7,0.3c0.2-3.5,0.2-6.1,0.3-7.9
				c5.6,0,11.4,0.1,17.4,0.1l10.4,0l5.6,0c-0.2,3.4-0.3,6.1-0.3,7.9c-3.5-0.2-6.8-0.3-10-0.3h-2.2l-0.3,6.6l-0.8,25.4l-0.1,4.3
				c0,1.8,0,3.6,0,5.5l-4.4-0.1C433.6,455.7,432,455.7,429.4,455.8z"/>
			<path class="st2" d="M482.3,405.5c2.9,0,5.6,0.5,8.3,1.5c2.6,1,5,2.6,7,4.8c2,2.2,3.6,4.8,4.6,7.8c1,3,1.6,6.4,1.6,10.4
				c0,3.7-0.5,7.3-1.5,10.7s-2.5,6.3-4.6,8.8c-2.1,2.4-4.6,4.3-7.5,5.4c-3,1.2-6.1,1.8-9.3,1.8c-3.1,0-6.1-0.5-8.9-1.6
				c-2.8-1.1-5.3-2.8-7.4-5.1c-2.1-2.3-3.5-5-4.4-8c-0.9-3-1.3-6.3-1.3-9.8c0-3.8,0.6-7.5,1.7-11c1.1-3.5,2.7-6.4,4.9-8.7
				c2.2-2.3,4.7-4,7.6-5.2C475.9,406.1,479,405.5,482.3,405.5z M481.8,413.2c-2.9,0-5.5,0.8-7.6,2.5c-2.2,1.7-3.8,4-4.9,6.9
				c-1.1,2.9-1.6,6-1.6,9.4c0,3.1,0.5,6,1.6,8.7s2.7,4.7,4.8,6c2.2,1.4,4.5,2.1,7.1,2.1c1.9,0,3.7-0.4,5.5-1.2
				c1.7-0.8,3.2-2.1,4.5-3.7c1.3-1.7,2.2-3.7,2.8-6.1c0.6-2.4,1-4.8,1-7.4c0-2.4-0.3-4.7-0.9-6.9c-0.6-2.2-1.5-4.1-2.6-5.7
				c-1.2-1.6-2.6-2.7-4.3-3.5C485.5,413.6,483.7,413.2,481.8,413.2z M479,401.8l1.1-3.3c0.2-0.7,0.5-1.6,0.8-2.6
				c0.3-1,0.6-2,0.9-2.9c1.6,0,3,0.1,4.3,0.1c1.1,0,2.5,0,4.3-0.1c-1.3,2-2.3,3.6-2.9,4.7l-2.4,4.1c-1,0-2.1-0.1-3.1-0.1
				C481,401.7,480,401.8,479,401.8z"/>
			<path class="st2" d="M514.1,455.8c0.4-4.3,0.6-9.2,0.8-14.5l0.7-17.7c0.2-6.4,0.3-12.1,0.3-17.1c2.2,0,4.1,0.1,5.7,0.1
				c1.2,0,2.8,0,5.1-0.1c2.2,4.8,5.2,11,9,18.6c3.8,7.6,6.9,14,9.3,19l1.1-33.6c0-0.8,0-2.1,0-4c1.8,0,3.2,0.1,4.1,0.1
				c0.4,0,1.7,0,4.1-0.1l-0.7,13.3l-0.9,22.7l-0.3,13.4c-2,0-3.7-0.1-5.1-0.1c-1.1,0-2.9,0-5.4,0.1c-1-2.1-1.7-3.7-2.2-4.8
				c-0.8-1.6-2.5-4.9-5.1-9.8c-1.7-3.3-3.8-7.5-6.4-12.6c-1.9-3.8-3.5-7-4.8-9.8c-0.2,3.9-0.4,11.2-0.7,21.7
				c-0.1,4.3-0.2,9.4-0.3,15.3c-1.8,0-3.1-0.1-3.9-0.1C517.7,455.7,516.3,455.7,514.1,455.8z"/>
			<path class="st2" d="M561.8,464.4c1.3-4.5,2.8-9.7,4.3-15.7c2.1,0,3.6,0.1,4.5,0.1c0.7,0,2.1,0,4.3-0.1c-0.8,1.6-1.6,3.3-2.4,5
				s-1.7,3.6-2.6,5.5c-0.9,2-1.7,3.7-2.4,5.1c-1.2,0-2.1-0.1-2.8-0.1C563.9,464.3,562.9,464.3,561.8,464.4z"/>
			<path class="st2" d="M601.5,454.9c-0.1-3-0.3-5.4-0.5-7.3c3.1,1.8,5.9,2.6,8.4,2.6c1,0,2-0.2,2.8-0.6s1.5-0.9,1.9-1.6
				c0.4-0.7,0.6-1.5,0.6-2.4c0-0.7-0.1-1.3-0.3-1.8c-0.3-0.7-0.8-1.5-1.5-2.3c-0.9-1.1-2.5-2.9-4.8-5.4c-1.1-1.2-1.9-2.1-2.3-2.6
				c-0.9-1.1-1.7-2.1-2.2-3c-0.5-0.9-0.9-1.8-1.1-2.7c-0.2-0.9-0.3-1.8-0.3-2.8c0-1.9,0.4-3.6,1.2-5.2c0.8-1.6,2.1-2.9,3.7-3.8
				c1.6-0.9,3.7-1.4,6.2-1.4c2.3,0,4.8,0.3,7.6,1c0.1,2.1,0.2,4.4,0.5,7c-2.5-1.2-4.7-1.8-6.8-1.8c-1.5,0-2.8,0.4-3.8,1.3
				c-1,0.9-1.5,1.9-1.5,3.1c0,0.3,0,0.6,0.1,1c0.1,0.3,0.2,0.7,0.3,1c0.1,0.3,0.4,0.8,0.7,1.3c0.4,0.5,0.9,1.1,1.5,1.8
				s1.3,1.3,1.7,1.7l2.9,3.3c0.7,0.8,1.4,1.5,2,2.2c0.6,0.7,1.1,1.4,1.5,2.1c0.4,0.7,0.7,1.3,1,1.9c0.2,0.6,0.4,1.2,0.5,1.9
				c0.1,0.6,0.2,1.3,0.2,2c0,1.7-0.3,3.2-0.9,4.7c-0.6,1.5-1.5,2.7-2.7,3.6s-2.4,1.6-3.8,2c-1.4,0.4-2.8,0.5-4.4,0.5
				c-1,0-2.2-0.1-3.5-0.3C605.5,456,603.7,455.5,601.5,454.9z"/>
			<path class="st2" d="M630.8,455.8c0.1-1.4,0.2-4.1,0.3-8l3.6,0.1c0.3,0,1.3,0,3.1-0.1c-0.1,1.4-0.1,2.9-0.2,4.4l-0.1,3.6
				l-3.1-0.1C634.2,455.7,633.1,455.8,630.8,455.8z"/>
			<path class="st2" d="M647.4,455.8c0.5-5.9,0.8-12.6,1.1-19.8c0.3-7.3,0.4-14.1,0.5-20.6c1.6,0,3,0.1,4,0.1c0.7,0,1.9,0,3.5-0.1
				c-0.2,3.6-0.4,7.6-0.6,12.1l-0.5,11.9c-0.1,3.4-0.2,6.8-0.3,10.1l4.1,0.1c3.8,0,6.3,0,7.5,0c1.2,0,2.4-0.1,3.6-0.2
				c-0.1,1.9-0.3,4.1-0.4,6.4c-4.2,0-7.7-0.1-10.7-0.1l-7.5,0L647.4,455.8z"/>
			<path class="st2" d="M677.2,455.8c0.1-1.4,0.2-4.1,0.3-8l3.6,0.1c0.3,0,1.3,0,3.1-0.1c-0.1,1.4-0.1,2.9-0.2,4.4l-0.1,3.6
				l-3.1-0.1C680.6,455.7,679.4,455.8,677.2,455.8z"/>
		</g>
	</g>
</g>
</svg>
